<svg xmlns="http://www.w3.org/2000/svg" viewBox="0 0 128 128" role="img" aria-labelledby="title desc">
  <title id="title">烛微标识</title>
  <desc id="desc">盾牌、烛焰、雷达扫描和微点洞察组成的烛微产品标识。</desc>
  <defs>
    <linearGradient id="shield" x1="18" y1="10" x2="112" y2="118" gradientUnits="userSpaceOnUse">
      <stop stop-color="#111827"/>
      <stop offset="0.52" stop-color="#172554"/>
      <stop offset="1" stop-color="#0F766E"/>
    </linearGradient>
    <linearGradient id="flame" x1="50" y1="39" x2="78" y2="104" gradientUnits="userSpaceOnUse">
      <stop stop-color="#FDE68A"/>
      <stop offset="0.45" stop-color="#F59E0B"/>
      <stop offset="1" stop-color="#F59E0B"/>
    </linearGradient>
    <filter id="soft-glow" x="-30%" y="-30%" width="160%" height="160%">
      <feGaussianBlur stdDeviation="2.5" result="blur"/>
      <feMerge>
        <feMergeNode in="blur"/>
        <feMergeNode in="SourceGraphic"/>
      </feMerge>
    </filter>
  </defs>
  <path fill="url(#shield)" d="M64 6 109 24v34c0 29.2-17.2 50.5-45 64-27.8-13.5-45-34.8-45-64V24L64 6Z"/>
  <path fill="none" stroke="#E5E7EB" stroke-opacity="0.24" stroke-width="2" d="M64 14 101 29v29c0 24.6-13.7 42.6-37 54.4C40.7 100.6 27 82.6 27 58V29l37-15Z"/>
  <path fill="none" stroke="#38BDF8" stroke-linecap="round" stroke-width="4" d="M35 66a29 29 0 0 1 58 0"/>
  <path fill="none" stroke="#14B8A6" stroke-linecap="round" stroke-opacity="0.9" stroke-width="3" d="M44 66a20 20 0 0 1 40 0"/>
  <path fill="url(#flame)" d="M64 38c9 10.7 15 19.8 15 32 0 13.4-7.7 21.5-15 27.5C56.7 91.5 49 83.4 49 70c0-9.9 4.6-17.8 11.2-24.9 2-2.1 3.3-4.4 3.8-7.1Z"/>
  <path fill="#F8FAFC" fill-opacity="0.9" d="M64 55c5.4 6.4 8.4 11.5 8.4 18.3 0 7.2-3.6 12.1-8.4 16-4.8-3.9-8.4-8.8-8.4-16C55.6 66.5 58.6 61.4 64 55Z"/>
  <path fill="#111827" fill-opacity="0.72" d="M61 72h6v23h-6z"/>
  <circle cx="64" cy="72" r="6" fill="#F8FAFC" filter="url(#soft-glow)"/>
  <circle cx="64" cy="72" r="3" fill="#EF4444"/>
  <circle cx="34" cy="47" r="4" fill="#F59E0B"/>
  <circle cx="94" cy="47" r="4" fill="#38BDF8"/>
  <circle cx="44" cy="94" r="4" fill="#14B8A6"/>
  <circle cx="84" cy="94" r="4" fill="#F59E0B"/>
  <path fill="none" stroke="#CBD5E1" stroke-linecap="round" stroke-opacity="0.72" stroke-width="2" d="M38 48h16M90 48H74M47 91l10-10M81 81l7 10"/>
</svg>
